<?xml version="1.0" encoding="utf-8"?>
<!-- Generator: Adobe Illustrator 27.2.0, SVG Export Plug-In . SVG Version: 6.00 Build 0)  -->
<svg version="1.1" id="Слой_1" xmlns="http://www.w3.org/2000/svg" xmlns:xlink="http://www.w3.org/1999/xlink" x="0px" y="0px"
	 viewBox="0 0 1000 112" style="enable-background:new 0 0 1000 112;" xml:space="preserve">
<style type="text/css">
	.st0{fill:url(#SVGID_1_);}
	.st1{fill:#FFFFFF;}
</style>
<linearGradient id="SVGID_1_" gradientUnits="userSpaceOnUse" x1="-219.0638" y1="55.95" x2="616.3422" y2="55.95">
	<stop  offset="0" style="stop-color:#0066A1"/>
	<stop  offset="1" style="stop-color:#00E0FF"/>
</linearGradient>
<path class="st0" d="M83.6,15.8C73.2,5,60.3-0.5,44.8-0.5H0v20C0,29.2,7.8,37,17.5,37h4.8V20.8h22.6c9.8,0,17.7,3.2,23.9,9.7
	c6.1,6.5,9.2,15,9.2,25.4s-3.1,18.9-9.2,25.4S54.7,91,44.9,91H22.2V45.8h-4.8C7.8,45.8,0,53.7,0,63.3v49.1h44.8
	c15.5,0,28.4-5.4,38.8-16.3s15.5-24.2,15.5-40.2S94,26.7,83.6,15.8z M239.8,112.4h-22.6L210,92.1c-42,0-52.5,19.1-53.1,20.2v0.1h-24
	l2.3-6.6c5.3-11.6,21.5-34.5,67.5-34.5l-16.3-46.1l-12.7,37.7l-7.4-5.9c-6.6-5.2-9.1-14-6.3-22l12.4-35.5H200L239.8,112.4z
	 M344,69.8c6.6-3,11.8-7.5,15.8-13.5s6-12.4,6-19.4c0-10.3-3.7-19.1-11-26.4s-16.2-11-26.6-11H283v27.3c0,9.9,8.1,18,18,18h4.2V20.3
	h22.9c4.2,0,7.8,1.6,10.8,4.8s4.5,7.2,4.5,11.8s-1.5,8.6-4.5,11.8c-3,3.3-6.6,4.9-10.8,4.9H301c-9.9,0-18,8.1-18,18v40.7h22.2V79
	c0-3.2,2.6-5.8,5.8-5.8h11.1l22.8,39.2h24L344,69.8z M133,112.4c0,0,0.5-2.6,2.3-6.6 M414.3,83.8v28.6h22.2V90l12.8-16.8l29.8,39.2
	h27.4l-44-56.6l39.9-52.4h-25.6L414.3,83.8z M436.5,45.6h-5.3c-9.4,0-16.9-7.6-16.9-16.9V3.4h22.2L436.5,45.6L436.5,45.6z"/>
<g>
	<path class="st1" d="M756.1,112.4h-22.6l-7.2-20.3c-42,0-52.5,19.1-53.1,20.2v0.1h-24l2.3-6.6c5.3-11.6,21.5-34.5,67.5-34.5
		l-16.3-46.1L690,62.9l-7.4-5.9c-6.6-5.2-9.1-14-6.3-22l12.4-35.5h27.6L756.1,112.4z"/>
	<path class="st1" d="M567.9,91.1h43v21.3h-65.3V21.8c0-12.3,10-22.2,22.2-22.2l0,0L567.9,91.1L567.9,91.1z"/>
	<path class="st1" d="M952.5,91.1V80.4c0-8.1,6.6-14.7,14.7-14.7h28.1v-21h-28.7c-20,0-36.3,16.2-36.3,36.3v31.3h69.8V91.1H952.5z
		 M952.5,20.8h46.7V-0.5h-69v25.8c0,8.8,7.1,15.9,15.9,15.9h6.4L952.5,20.8z"/>
	<g>
		<polygon class="st1" points="798.8,83.8 798.8,112.4 821.1,112.4 821.1,90 833.9,73.2 863.7,112.4 891.1,112.4 847.1,55.8 
			887,3.4 861.4,3.4 		"/>
		<path class="st1" d="M821.1,45.6h-5.3c-9.4,0-16.9-7.6-16.9-16.9V3.4h22.2V45.6z"/>
	</g>
</g>
</svg>
